<?xml version="1.0" encoding="utf-8"?>
<!-- Generator: Adobe Illustrator 27.5.0, SVG Export Plug-In . SVG Version: 6.00 Build 0)  -->
<svg version="1.1" xmlns="http://www.w3.org/2000/svg" xmlns:xlink="http://www.w3.org/1999/xlink" x="0px" y="0px"
	 viewBox="0 0 500 500" style="enable-background:new 0 0 500 500;" xml:space="preserve">
<g id="BACKGROUND">
	<rect style="fill:#FCFFFF;" width="500" height="500"/>
</g>
<g id="OBJECTS">
	
		<text transform="matrix(1 0 0 1 145.3662 55.1431)" style="fill:#FFD30B; font-family:'Montserrat-SemiBold'; font-size:16.4404px;">EMOTICON COLLECTION</text>
	<g>
		<circle style="fill:#F35247;" cx="106.307" cy="176.765" r="54.894"/>
		<path style="fill:#FFFFFF;" d="M106.307,160.625l2.507-2.027c5.412-4.375,11.561-4.869,16.754-2.93
			c12.027,4.491,14.439,20.574,4.792,29.043l-24.053,21.115l-24.053-21.115c-9.648-8.469-7.235-24.552,4.792-29.043
			c5.194-1.939,11.342-1.445,16.754,2.93L106.307,160.625z"/>
	</g>
	<g>
		<radialGradient id="SVGID_1_" cx="250" cy="176.7652" r="54.8939" gradientUnits="userSpaceOnUse">
			<stop  offset="0.8394" style="stop-color:#5536FC"/>
			<stop  offset="0.9922" style="stop-color:#5536FC"/>
		</radialGradient>
		<circle style="fill:url(#SVGID_1_);" cx="250" cy="176.765" r="54.894"/>
		<g>
			<rect x="221.436" y="166.032" style="fill:#FFFFFF;" width="11.485" height="34.454"/>
			<path style="fill:#FFFFFF;" d="M240.282,168.093L240.282,168.093c0,0,5.301-8.834,8.834-12.368
				c3.079-3.079,3.699-10.184,3.807-11.96c0.014-0.231,0.206-0.408,0.437-0.408l0,0c3.348,0,6.062,2.714,6.062,6.062v13.668h11.996
				c3.946,0,7.146,3.199,7.146,7.146v23.107c0,3.947-3.199,7.146-7.146,7.146h-31.137c-1.626,0-2.945-1.318-2.945-2.945v-26.503
				C237.337,169.412,238.656,168.093,240.282,168.093z"/>
		</g>
	</g>
	<g>
		
			<radialGradient id="SVGID_00000124877577870211279000000011227533220524497849_" cx="393.6929" cy="176.7652" r="54.894" gradientUnits="userSpaceOnUse">
			<stop  offset="0.8212" style="stop-color:#FDDF08"/>
			<stop  offset="0.9611" style="stop-color:#FDDF08"/>
		</radialGradient>
		<circle style="fill:url(#SVGID_00000124877577870211279000000011227533220524497849_);" cx="393.693" cy="176.765" r="54.894"/>
		<g>
			<g>
				<g>
					<path d="M409.665,204.212c-0.486,0-0.964-0.218-1.282-0.631l-1.793-2.333c-3.103-4.038-7.805-6.354-12.897-6.354
						c-5.093,0-9.794,2.316-12.897,6.354l-1.793,2.333c-0.541,0.703-1.553,0.842-2.264,0.297c-0.706-0.544-0.84-1.556-0.296-2.264
						l1.793-2.333c3.72-4.841,9.354-7.615,15.458-7.615c6.103,0,11.738,2.775,15.458,7.615l1.793,2.333
						c0.544,0.708,0.41,1.72-0.296,2.264C410.354,204.103,410.007,204.212,409.665,204.212z"/>
				</g>
				<g>
					<g>
						<path d="M377.784,169.096c0,4.038-3.274,7.312-7.312,7.312c-4.038,0-7.312-3.273-7.312-7.312c0-4.038,3.273-7.312,7.312-7.312
							C374.51,161.785,377.784,165.058,377.784,169.096z"/>
						<g>
							<path d="M354.708,164.63c-0.189,0-0.38-0.033-0.566-0.103c-0.834-0.312-1.258-1.239-0.946-2.075
								c1.927-5.172,8.368-13.943,18.966-10.104c0.837,0.304,1.271,1.23,0.968,2.069c-0.304,0.837-1.227,1.272-2.069,0.968
								c-10.215-3.705-14.659,7.71-14.841,8.197C355.975,164.23,355.361,164.63,354.708,164.63z"/>
						</g>
					</g>
					<g>
						<ellipse transform="matrix(0.7071 -0.7071 0.7071 0.7071 2.542 344.33)" cx="416.914" cy="169.096" rx="7.312" ry="7.312"/>
						<g>
							<path d="M432.678,164.63c-0.653,0-1.268-0.399-1.512-1.047c-0.183-0.487-4.623-11.898-14.841-8.197
								c-0.837,0.304-1.764-0.131-2.069-0.968c-0.303-0.839,0.131-1.765,0.968-2.069c10.605-3.836,17.041,4.934,18.966,10.104
								c0.312,0.835-0.112,1.763-0.946,2.075C433.058,164.596,432.867,164.63,432.678,164.63z"/>
						</g>
					</g>
				</g>
			</g>
			<g>
				
					<radialGradient id="SVGID_00000147908487029616960920000017014966056005627304_" cx="429.1646" cy="191.5343" r="7.9967" gradientTransform="matrix(1 0 0 1.5212 0 -99.8258)" gradientUnits="userSpaceOnUse">
					<stop  offset="0.8394" style="stop-color:#5536FC"/>
					<stop  offset="0.9922" style="stop-color:#5536FC"/>
				</radialGradient>
				<path style="fill:url(#SVGID_00000147908487029616960920000017014966056005627304_);" d="M429.165,178.744
					c0,0-8.879,10.527-8.604,17.667c0.096,2.499,1.179,4.292,2.546,5.566c3.358,3.131,8.758,3.131,12.117,0
					c1.367-1.274,2.45-3.067,2.546-5.566C438.044,189.271,429.165,178.744,429.165,178.744z"/>
				
					<radialGradient id="SVGID_00000172438738736329954630000005229660975544713639_" cx="358.2211" cy="191.5343" r="7.9967" gradientTransform="matrix(1 0 0 1.5212 0 -99.8258)" gradientUnits="userSpaceOnUse">
					<stop  offset="0.8394" style="stop-color:#5536FC"/>
					<stop  offset="0.9922" style="stop-color:#5536FC"/>
				</radialGradient>
				<path style="fill:url(#SVGID_00000172438738736329954630000005229660975544713639_);" d="M358.221,178.744
					c0,0-8.879,10.527-8.605,17.667c0.096,2.499,1.179,4.292,2.546,5.566c3.358,3.131,8.759,3.131,12.117,0
					c1.367-1.274,2.45-3.067,2.546-5.566C367.1,189.271,358.221,178.744,358.221,178.744z"/>
			</g>
		</g>
	</g>
	<g>
		
			<radialGradient id="SVGID_00000083778944079655717430000015851459218978164625_" cx="250" cy="345.753" r="54.8939" gradientUnits="userSpaceOnUse">
			<stop  offset="0.8212" style="stop-color:#FDDF08"/>
			<stop  offset="0.9611" style="stop-color:#FDDF08"/>
		</radialGradient>
		<circle style="fill:url(#SVGID_00000083778944079655717430000015851459218978164625_);" cx="250" cy="345.753" r="54.894"/>
		<g>
			<g>
				<path d="M219.173,336.846c-0.594,0-1.167-0.329-1.448-0.897c-0.396-0.799-0.069-1.767,0.73-2.165l10.832-5.367l-10.901-6.078
					c-0.779-0.434-1.059-1.418-0.624-2.196c0.434-0.777,1.417-1.058,2.196-0.623l13.582,7.571c0.523,0.292,0.843,0.85,0.828,1.449
					c-0.014,0.599-0.359,1.141-0.897,1.408l-13.582,6.731C219.658,336.793,219.414,336.846,219.173,336.846z"/>
			</g>
			<g>
				<path d="M280.827,336.846c-0.241,0-0.485-0.053-0.715-0.167l-13.582-6.731c-0.538-0.266-0.883-0.809-0.897-1.408
					c-0.015-0.599,0.304-1.157,0.828-1.449l13.582-7.571c0.781-0.435,1.763-0.155,2.196,0.623c0.434,0.779,0.155,1.763-0.624,2.196
					l-10.901,6.078l10.832,5.367c0.799,0.397,1.126,1.365,0.73,2.165C281.993,336.517,281.421,336.846,280.827,336.846z"/>
			</g>
		</g>
		<path d="M281.709,362.788c2.462-4.594,3.866-9.84,3.866-15.418h-71.151c0,5.577,1.404,10.824,3.866,15.418
			c7.445-5.144,18.872-8.447,31.709-8.447C262.837,354.342,274.265,357.645,281.709,362.788z"/>
		<path style="fill:#E94E65;" d="M247.115,380.062h5.769c12.478,0,23.315-6.995,28.825-17.273
			c-7.445-5.144-18.872-8.447-31.709-8.447c-12.837,0-24.265,3.303-31.709,8.447C223.8,373.067,234.638,380.062,247.115,380.062z"/>
	</g>
	<g>
		
			<linearGradient id="SVGID_00000147927514895931900630000015156668783796322197_" gradientUnits="userSpaceOnUse" x1="393.6929" y1="290.859" x2="393.6929" y2="400.647">
			<stop  offset="0" style="stop-color:#FD6C10"/>
			<stop  offset="0.7824" style="stop-color:#FDDF08"/>
		</linearGradient>
		<circle style="fill:url(#SVGID_00000147927514895931900630000015156668783796322197_);" cx="393.693" cy="345.753" r="54.894"/>
		<g>
			<g>
				<g>
					<path d="M381.813,338.013c-15.68,0-25.389-2.122-28.899-6.324c-1.544-1.848-1.307-3.45-1.244-3.753
						c0.18-0.872,1.025-1.443,1.91-1.25c0.842,0.175,1.392,0.976,1.268,1.815c0.002,0.09,0.038,0.618,0.769,1.365
						c2.02,2.066,8.752,5.452,31.247,4.848c0.014,0,0.028,0,0.044,0c0.872,0,1.589,0.695,1.613,1.572
						c0.024,0.891-0.681,1.633-1.572,1.657C385.171,337.989,383.457,338.013,381.813,338.013z"/>
				</g>
				<path d="M374.601,341.483c0,3.884-2.676,7.032-5.976,7.032c-3.3,0-5.976-3.148-5.976-7.032c0-3.884,2.676-7.032,5.976-7.032
					C371.925,334.451,374.601,337.6,374.601,341.483z"/>
			</g>
			<g>
				<g>
					<path d="M405.573,338.013c-1.646,0-3.358-0.024-5.135-0.069c-0.891-0.024-1.595-0.766-1.572-1.657
						c0.023-0.892,0.821-1.569,1.657-1.572c22.499,0.61,29.229-2.783,31.247-4.848c0.788-0.806,0.769-1.356,0.769-1.378
						c-0.183-0.874,0.386-1.674,1.26-1.856c0.875-0.181,1.738,0.43,1.917,1.304c0.063,0.303,0.3,1.905-1.244,3.753
						C430.963,335.891,421.25,338.013,405.573,338.013z"/>
				</g>
				<ellipse cx="418.762" cy="341.483" rx="5.976" ry="7.032"/>
			</g>
			<path d="M415.099,369.567L415.099,369.567c-8.849-8.012-36.149-8.012-44.998,0l0,0H415.099z"/>
		</g>
	</g>
	<g>
		
			<radialGradient id="SVGID_00000111155508974328582630000015903272590661459845_" cx="106.3071" cy="345.753" r="54.894" gradientUnits="userSpaceOnUse">
			<stop  offset="0.8212" style="stop-color:#FDDF08"/>
			<stop  offset="0.9611" style="stop-color:#FDDF08"/>
		</radialGradient>
		<circle style="fill:url(#SVGID_00000111155508974328582630000015903272590661459845_);" cx="106.307" cy="345.753" r="54.894"/>
		<g>
			<path d="M106.307,323.787H55.935v8.511c0,0,2.562,0.608,3.127,1.042c0.659,0.507,0.646,2.498,0.758,3.221
				c0.833,5.341,2.35,10.263,6.746,13.766c4.113,3.278,9.698,3.922,14.794,4.008c4.545,0.077,8.854-0.53,12.491-3.5
				c3.286-2.684,4.65-6.549,4.813-10.721c0.434-11.117,7.643-9.64,7.643-9.64s7.208-1.476,7.643,9.64
				c0.163,4.172,1.527,8.037,4.813,10.721c3.637,2.97,7.947,3.577,12.491,3.5c5.095-0.086,10.681-0.731,14.794-4.008
				c4.396-3.503,5.913-8.425,6.746-13.766c0.113-0.724,0.1-2.715,0.758-3.221c0.565-0.434,3.127-1.042,3.127-1.042v-8.511H106.307z"
				/>
			<g>
				<path d="M90.335,367.518c0.486,0,0.964,0.217,1.282,0.631l1.793,2.333c3.103,4.038,7.804,6.354,12.897,6.354
					c5.093,0,9.794-2.316,12.897-6.354l1.793-2.333c0.541-0.703,1.553-0.842,2.264-0.297c0.706,0.544,0.84,1.556,0.296,2.264
					l-1.793,2.333c-3.72,4.841-9.354,7.616-15.458,7.616s-11.738-2.775-15.458-7.616l-1.793-2.333
					c-0.544-0.708-0.41-1.72,0.296-2.264C89.646,367.627,89.993,367.518,90.335,367.518z"/>
			</g>
		</g>
	</g>
</g>
<g id="DESIGNED_BY_FREEPIK">
	<g>
		<g id="XMLID_319_">
			<g id="XMLID_338_">
				<path id="XMLID_346_" style="fill:#9EB7C7;" d="M260.104,465.465c-0.433,0.443-0.804,0.932-1.108,1.453l-0.465-0.241
					c-0.067-0.297-0.35-0.502-0.659-0.466c-0.331,0.039-0.567,0.339-0.529,0.67c0.039,0.331,0.339,0.567,0.67,0.528
					c0.065-0.007,0.127-0.025,0.184-0.052l0.451,0.234c-0.251,0.554-0.433,1.139-0.539,1.743l0.747,0.132
					c0.229-1.306,0.85-2.507,1.792-3.473L260.104,465.465z"/>
				<path id="XMLID_345_" style="fill:#9EB7C7;" d="M265.592,463.163c-0.171,0-0.341,0.006-0.509,0.017l-0.074-0.626
					c0.188-0.149,0.296-0.389,0.266-0.645c-0.046-0.393-0.402-0.674-0.795-0.628c-0.393,0.046-0.675,0.402-0.628,0.796
					c0.03,0.254,0.19,0.461,0.404,0.563l0.073,0.624c-0.714,0.116-1.402,0.332-2.06,0.645l0.327,0.685
					c0.935-0.447,1.941-0.674,2.995-0.674c0.497,0,0.993,0.053,1.476,0.158l0.16-0.741
					C266.692,463.222,266.143,463.163,265.592,463.163z"/>
				<path id="XMLID_344_" style="fill:#9EB7C7;" d="M272.194,465.71c0.331-0.04,0.566-0.341,0.525-0.672
					c-0.04-0.331-0.341-0.566-0.672-0.525c-0.31,0.038-0.535,0.304-0.53,0.608l-0.416,0.363c-0.418-0.43-0.89-0.813-1.407-1.14
					l-0.404,0.642c1.135,0.715,2.021,1.727,2.564,2.925l0.69-0.313c-0.251-0.554-0.567-1.071-0.942-1.545l0.402-0.351
					C272.065,465.715,272.129,465.719,272.194,465.71z"/>
				<path id="XMLID_343_" style="fill:#9EB7C7;" d="M265.045,473.371c-0.386,0.023-0.775,0.035-1.157,0.035
					c-0.88,0-1.733-0.061-2.479-0.18c-0.391-0.061-0.846-0.154-1.27-0.292c1.047,1.861,3.069,3.125,5.389,3.125
					c2.855,0,5.263-1.916,5.949-4.503c-0.682,0.449-1.505,0.825-2.458,1.122C267.839,473.047,266.464,473.286,265.045,473.371z"/>
				<path id="XMLID_339_" style="fill:#9EB7C7;" d="M265.592,464.68c-3.352,0-6.079,2.666-6.079,5.943
					c0,0.425,0.046,0.849,0.137,1.261c0.674,0.483,2.706,0.891,5.348,0.731c2.88-0.174,5.297-0.958,6.672-2.159
					c-0.005-0.194-0.021-0.39-0.045-0.581C271.244,466.913,268.65,464.68,265.592,464.68z M263.433,471.194
					c-1.02,0-1.85-0.83-1.85-1.85c0-1.021,0.83-1.85,1.85-1.85c1.02,0,1.85,0.83,1.85,1.85
					C265.282,470.364,264.452,471.194,263.433,471.194z M268.17,470.286c-0.75,0-1.36-0.61-1.36-1.36s0.61-1.36,1.36-1.36
					s1.36,0.61,1.36,1.36S268.92,470.286,268.17,470.286z"/>
			</g>
			<path id="XMLID_336_" style="fill:#9EB7C7;" d="M281.596,466.547c-0.295-0.116-0.806-0.31-1.383-0.238
				c-0.551,0.069-0.844,0.341-0.844,1.007v0.866h2.228v1.717h-2.228v5.455h-1.932v-5.455h-1.339v-1.717h1.339v-0.889
				c0-1.68,0.896-2.782,2.568-2.782c0.643,0,1.157,0.121,1.59,0.308V466.547z"/>
			<path id="XMLID_334_" style="fill:#9EB7C7;" d="M286.298,469.878c-0.177-0.029-0.357-0.046-0.525-0.046
				c-0.895,0-1.51,0.548-1.51,1.613v3.908h-1.933v-7.172h1.873v0.784c0.451-0.673,1.14-0.977,2.021-0.977
				c0.414,0,0.848,0.128,1.095,0.337L286.298,469.878z"/>
			<path id="XMLID_331_" style="fill:#9EB7C7;" d="M293.966,471.757c0,0.222-0.016,0.488-0.037,0.651h-5.085
				c0.207,1.036,0.933,1.487,1.843,1.487c0.622,0,1.295-0.252,1.813-0.689l1.133,1.243c-0.815,0.748-1.851,1.089-3.057,1.089
				c-2.198,0-3.724-1.496-3.724-3.753c0-2.258,1.48-3.797,3.627-3.797C292.544,467.989,293.958,469.522,293.966,471.757z
				 M288.852,471.091h3.175c-0.178-0.918-0.732-1.436-1.561-1.436C289.555,469.654,289.021,470.202,288.852,471.091z"/>
			<path id="XMLID_328_" style="fill:#9EB7C7;" d="M301.619,471.757c0,0.222-0.016,0.488-0.037,0.651h-5.085
				c0.207,1.036,0.933,1.487,1.843,1.487c0.622,0,1.296-0.252,1.813-0.689l1.133,1.243c-0.815,0.748-1.851,1.089-3.058,1.089
				c-2.198,0-3.723-1.496-3.723-3.753c0-2.258,1.48-3.797,3.627-3.797C300.197,467.989,301.611,469.522,301.619,471.757z
				 M296.505,471.091h3.175c-0.178-0.918-0.733-1.436-1.561-1.436C297.208,469.654,296.675,470.202,296.505,471.091z"/>
			<path id="XMLID_325_" style="fill:#9EB7C7;" d="M309.965,471.764c0,2.154-1.495,3.775-3.472,3.775
				c-0.962,0-1.643-0.378-2.109-0.933v3.708h-1.925v-10.133h1.888v0.792c0.467-0.585,1.154-0.984,2.139-0.984
				C308.47,467.989,309.965,469.61,309.965,471.764z M304.287,471.764c0,1.133,0.748,1.977,1.844,1.977
				c1.14,0,1.85-0.881,1.85-1.977c0-1.095-0.71-1.976-1.85-1.976C305.035,469.788,304.287,470.632,304.287,471.764z"/>
			<path id="XMLID_322_" style="fill:#9EB7C7;" d="M313.068,465.835c0,0.696-0.541,1.23-1.236,1.23c-0.696,0-1.228-0.533-1.228-1.23
				c0-0.695,0.532-1.243,1.228-1.243C312.527,464.592,313.068,465.14,313.068,465.835z M312.809,475.353h-1.932v-7.172h1.932
				V475.353z"/>
			<path id="XMLID_320_" style="fill:#9EB7C7;" d="M316.032,470.735l2.702-2.554h2.368l-3.479,3.375l3.501,3.797h-2.376
				l-2.717-2.901v2.901h-1.932v-10.658h1.932V470.735z"/>
		</g>
		<g>
			<path style="fill:#9EB7C7;" d="M184.413,475.289v-1.055c-0.527,0.718-1.391,1.23-2.387,1.23c-1.846,0-3.149-1.406-3.149-3.706
				c0-2.256,1.289-3.721,3.149-3.721c0.952,0,1.816,0.469,2.387,1.245v-3.765h1.099v9.771H184.413z M184.413,473.37v-3.208
				c-0.395-0.615-1.245-1.143-2.124-1.143c-1.42,0-2.27,1.172-2.27,2.739c0,1.567,0.85,2.725,2.27,2.725
				C183.168,474.483,184.018,473.985,184.413,473.37z"/>
			<path style="fill:#9EB7C7;" d="M186.932,471.744c0-2.051,1.465-3.706,3.486-3.706c2.139,0,3.398,1.67,3.398,3.794v0.278h-5.727
				c0.088,1.333,1.025,2.446,2.549,2.446c0.806,0,1.626-0.322,2.182-0.894l0.527,0.718c-0.703,0.703-1.655,1.084-2.812,1.084
				C188.441,475.465,186.932,473.956,186.932,471.744z M190.404,468.946c-1.509,0-2.256,1.274-2.314,2.358h4.644
				C192.718,470.25,192.015,468.946,190.404,468.946z"/>
			<path style="fill:#9EB7C7;" d="M194.607,474.352l0.571-0.791c0.469,0.542,1.362,1.011,2.329,1.011c1.084,0,1.67-0.513,1.67-1.216
				c0-1.714-4.38-0.659-4.38-3.281c0-1.099,0.952-2.036,2.636-2.036c1.202,0,2.051,0.454,2.623,1.025l-0.513,0.762
				c-0.424-0.513-1.201-0.893-2.109-0.893c-0.966,0-1.567,0.483-1.567,1.113c0,1.553,4.379,0.527,4.379,3.281
				c0,1.186-0.952,2.139-2.783,2.139C196.307,475.465,195.325,475.113,194.607,474.352z"/>
			<path style="fill:#9EB7C7;" d="M201.478,466.471c0-0.41,0.337-0.747,0.732-0.747c0.41,0,0.747,0.337,0.747,0.747
				c0,0.41-0.337,0.732-0.747,0.732C201.814,467.203,201.478,466.881,201.478,466.471z M201.667,475.289v-7.075h1.099v7.075H201.667
				z"/>
			<path style="fill:#9EB7C7;" d="M204.583,477.105l0.556-0.82c0.586,0.703,1.289,0.967,2.3,0.967c1.172,0,2.271-0.571,2.271-2.124
				v-1.011c-0.513,0.718-1.377,1.26-2.373,1.26c-1.846,0-3.149-1.377-3.149-3.662c0-2.271,1.289-3.677,3.149-3.677
				c0.952,0,1.802,0.469,2.373,1.245v-1.069h1.099v6.87c0,2.344-1.641,3.076-3.369,3.076
				C206.237,478.16,205.417,477.925,204.583,477.105z M209.709,473.253v-3.091c-0.381-0.615-1.23-1.143-2.109-1.143
				c-1.421,0-2.27,1.128-2.27,2.695c0,1.553,0.849,2.695,2.27,2.695C208.479,474.41,209.328,473.868,209.709,473.253z"/>
			<path style="fill:#9EB7C7;" d="M217.414,475.289v-4.629c0-1.245-0.63-1.641-1.582-1.641c-0.864,0-1.685,0.527-2.094,1.099v5.171
				h-1.099v-7.075h1.099v1.025c0.497-0.586,1.464-1.201,2.519-1.201c1.48,0,2.256,0.747,2.256,2.285v4.966H217.414z"/>
			<path style="fill:#9EB7C7;" d="M219.933,471.744c0-2.051,1.465-3.706,3.486-3.706c2.139,0,3.398,1.67,3.398,3.794v0.278h-5.727
				c0.088,1.333,1.025,2.446,2.548,2.446c0.806,0,1.626-0.322,2.183-0.894l0.527,0.718c-0.703,0.703-1.655,1.084-2.813,1.084
				C221.442,475.465,219.933,473.956,219.933,471.744z M223.404,468.946c-1.509,0-2.256,1.274-2.314,2.358h4.643
				C225.719,470.25,225.016,468.946,223.404,468.946z"/>
			<path style="fill:#9EB7C7;" d="M233.351,475.289v-1.055c-0.527,0.718-1.392,1.23-2.388,1.23c-1.845,0-3.149-1.406-3.149-3.706
				c0-2.256,1.289-3.721,3.149-3.721c0.952,0,1.817,0.469,2.388,1.245v-3.765h1.098v9.771H233.351z M233.351,473.37v-3.208
				c-0.396-0.615-1.245-1.143-2.124-1.143c-1.421,0-2.27,1.172-2.27,2.739c0,1.567,0.85,2.725,2.27,2.725
				C232.105,474.483,232.955,473.985,233.351,473.37z"/>
			<path style="fill:#9EB7C7;" d="M239.692,475.289v-9.771h1.099v3.765c0.571-0.776,1.421-1.245,2.388-1.245
				c1.845,0,3.149,1.465,3.149,3.721c0,2.3-1.304,3.706-3.149,3.706c-0.996,0-1.86-0.513-2.388-1.23v1.055H239.692z M242.9,474.483
				c1.436,0,2.285-1.157,2.285-2.725c0-1.567-0.85-2.739-2.285-2.739c-0.864,0-1.729,0.527-2.109,1.143v3.208
				C241.172,473.985,242.036,474.483,242.9,474.483z"/>
			<path style="fill:#9EB7C7;" d="M247.529,477.061c0.161,0.073,0.425,0.117,0.6,0.117c0.483,0,0.806-0.161,1.055-0.747l0.469-1.069
				l-2.959-7.148h1.186l2.358,5.801l2.344-5.801h1.2l-3.544,8.511c-0.425,1.024-1.143,1.421-2.08,1.436
				c-0.234,0-0.6-0.044-0.806-0.103L247.529,477.061z"/>
		</g>
	</g>
</g>
</svg>
